<svg width="0" height="0" class="hidden">
  <symbol fill="none" xmlns="http://www.w3.org/2000/svg" viewBox="0 0 20 20" id="Arrow Icon">
    <path fill-rule="evenodd" clip-rule="evenodd" d="M8.77519 4.55806C9.01927 4.80214 9.01927 5.19786 8.77519 5.44194L4.84214 9.375H16.6666C17.0118 9.375 17.2916 9.65482 17.2916 10C17.2916 10.3452 17.0118 10.625 16.6666 10.625H4.84214L8.77519 14.5581C9.01927 14.8021 9.01927 15.1979 8.77519 15.4419C8.53112 15.686 8.13539 15.686 7.89131 15.4419L2.89131 10.4419C2.64723 10.1979 2.64723 9.80214 2.89131 9.55806L7.89131 4.55806C8.13539 4.31398 8.53112 4.31398 8.77519 4.55806Z" fill="#CC312D"></path>
  </symbol>
  <symbol fill="none" xmlns="http://www.w3.org/2000/svg" viewBox="0 0 24 24" id="chat-bubble">
    <path d="M6.25 12.25C6.25 11.8358 6.58579 11.5 7 11.5H13C13.4142 11.5 13.75 11.8358 13.75 12.25C13.75 12.6642 13.4142 13 13 13H7C6.58579 13 6.25 12.6642 6.25 12.25Z" fill="#2F0D0C"></path>
    <path d="M7 7.5C6.58579 7.5 6.25 7.83579 6.25 8.25C6.25 8.66421 6.58579 9 7 9H9.5C9.91421 9 10.25 8.66421 10.25 8.25C10.25 7.83579 9.91421 7.5 9.5 7.5H7Z" fill="#2F0D0C"></path>
    <path fill-rule="evenodd" clip-rule="evenodd" d="M1.25 6.5C1.25 4.15279 3.15279 2.25 5.5 2.25H18.5C20.8472 2.25 22.75 4.15279 22.75 6.5V14.5C22.75 16.8472 20.8472 18.75 18.5 18.75H12.7249C12.4597 18.75 12.2053 18.8554 12.0178 19.0429L9.51219 21.5485C8.24147 22.8192 6.06733 22.1609 5.7149 20.3987L5.49263 19.2874C5.43013 18.9749 5.15576 18.75 4.83708 18.75C2.85599 18.75 1.25 17.144 1.25 15.1629V6.5ZM5.5 3.75C3.98122 3.75 2.75 4.98122 2.75 6.5V15.1629C2.75 16.3156 3.68442 17.25 4.83708 17.25C5.87078 17.25 6.76078 17.9796 6.9635 18.9933L7.18577 20.1046C7.30324 20.692 8.02796 20.9114 8.45153 20.4878L10.9571 17.9822C11.4259 17.5134 12.0618 17.25 12.7249 17.25H18.5C20.0188 17.25 21.25 16.0188 21.25 14.5V6.5C21.25 4.98122 20.0188 3.75 18.5 3.75H5.5Z" fill="#2F0D0C"></path>
  </symbol>
  <symbol fill="none" xmlns="http://www.w3.org/2000/svg" viewBox="0 0 28 28" id="check-circle">
    <circle cx="13.9999" cy="14" r="11.6667" stroke="#0CAF3A" stroke-width="2.1"></circle>
    <path d="M9.91675 14.5833L12.2501 16.9166L18.0834 11.0833" stroke="#0CAF3A" stroke-width="2.1" stroke-linecap="round" stroke-linejoin="round"></path>
  </symbol>
  <symbol fill="none" xmlns="http://www.w3.org/2000/svg" viewBox="0 0 28 28" id="circle-left">
    <path fill-rule="evenodd" clip-rule="evenodd" d="M1.45825 14C1.45825 7.07341 7.07335 1.45831 13.9999 1.45831C20.9265 1.45831 26.5416 7.07341 26.5416 14C26.5416 20.9266 20.9265 26.5416 13.9999 26.5416C7.07335 26.5416 1.45825 20.9266 1.45825 14ZM13.9999 3.20831C8.03985 3.20831 3.20825 8.03991 3.20825 14C3.20825 19.9601 8.03985 24.7916 13.9999 24.7916C19.96 24.7916 24.7916 19.9601 24.7916 14C24.7916 8.03991 19.96 3.20831 13.9999 3.20831ZM10.7057 11.375L11.6454 10.5872C12.0157 10.2767 12.0642 9.72483 11.7538 9.35451C11.4433 8.98418 10.8914 8.93567 10.5211 9.24614L8.47094 10.9649C8.07761 11.2947 7.87897 11.7646 7.87503 12.236C7.87496 12.2407 7.87492 12.2453 7.87492 12.25C7.87492 12.2544 7.87495 12.2588 7.87502 12.2633C7.87859 12.7351 8.07723 13.2056 8.47094 13.5356L10.5212 15.2539C10.8916 15.5644 11.4434 15.5158 11.7539 15.1454C12.0643 14.775 12.0157 14.2231 11.6453 13.9127L10.7054 13.125H16.0416C17.1692 13.125 18.0833 14.0391 18.0833 15.1666C18.0833 16.2942 17.1692 17.2083 16.0416 17.2083H13.7083C13.225 17.2083 12.8333 17.6001 12.8333 18.0833C12.8333 18.5666 13.225 18.9583 13.7083 18.9583H16.0416C18.1357 18.9583 19.8333 17.2607 19.8333 15.1666C19.8333 13.0726 18.1357 11.375 16.0416 11.375H10.7057Z" fill="#14151B"></path>
  </symbol>
  <symbol fill="none" xmlns="http://www.w3.org/2000/svg" viewBox="0 0 28 28" id="Close-Circle">
    <circle cx="13.9999" cy="14" r="11.6667" stroke="#ED4545" stroke-width="1.75"></circle>
    <path d="M16.9166 11.0833L11.0833 16.9166M11.0832 11.0833L16.9165 16.9166" stroke="#ED4545" stroke-width="1.75" stroke-linecap="round"></path>
  </symbol>
  <symbol fill="none" xmlns="http://www.w3.org/2000/svg" viewBox="0 0 24 24" id="home-happy">
    <path d="M16.1746 14.8279C16.3557 14.4554 16.2005 14.0066 15.828 13.8255C15.4555 13.6444 15.0067 13.7996 14.8256 14.1721C14.7651 14.2964 14.4616 14.7071 13.9263 15.0899C13.4093 15.4596 12.7486 15.75 12.0001 15.75C10.4279 15.75 9.58932 14.8016 9.12945 14.0921C8.90416 13.7445 8.43975 13.6453 8.09217 13.8706C7.74458 14.0959 7.64543 14.5603 7.87072 14.9079C8.44789 15.7984 9.68341 17.25 12.0001 17.25C13.144 17.25 14.1037 16.8071 14.7987 16.3101C15.4755 15.8262 15.9758 15.2369 16.1746 14.8279Z" fill="white"></path>
    <path fill-rule="evenodd" clip-rule="evenodd" d="M13.5069 2.58041L14.3816 3.15338L22.4088 8.37105C22.7561 8.59679 22.8547 9.06133 22.6289 9.40862C22.4032 9.75592 21.9386 9.85446 21.5913 9.62871L20.7126 9.0575C20.7374 9.24309 20.7501 9.43144 20.7501 9.62149V18C20.7501 20.3473 18.8473 22.25 16.5001 22.25H7.50009C5.15288 22.25 3.25009 20.3473 3.25009 18V9.62149C3.25009 9.43144 3.26279 9.24309 3.28762 9.0575L2.40883 9.62871C2.06153 9.85446 1.597 9.75592 1.37126 9.40862C1.14551 9.06133 1.24405 8.59679 1.59135 8.37105L9.61851 3.15339L10.4933 2.58041C11.4084 1.98101 12.5918 1.98101 13.5069 2.58041ZM12.6813 3.8372L13.5619 4.40958L18.0069 7.32104C18.7827 7.82918 19.2501 8.6941 19.2501 9.62149V18C19.2501 19.5188 18.0189 20.75 16.5001 20.75H7.50009C5.9813 20.75 4.75009 19.5188 4.75009 18V9.62149C4.75009 8.6941 5.21751 7.82918 5.99329 7.32104L10.4382 4.4096L11.3189 3.8372C11.7331 3.56794 12.2671 3.56794 12.6813 3.8372Z" fill="white"></path>
  </symbol>
  <symbol fill="none" xmlns="http://www.w3.org/2000/svg" viewBox="0 0 24 24" id="logout">
    <path d="M4.25 6.40064C4.25 4.73418 5.72038 3.45069 7.37156 3.67585L11.3716 4.22131C12.7341 4.40711 13.75 5.5709 13.75 6.94609V8.50001C13.75 8.91422 14.0858 9.25001 14.5 9.25001C14.9142 9.25001 15.25 8.91422 15.25 8.50001V6.94609C15.25 4.82079 13.68 3.02222 11.5742 2.73506L7.57423 2.18961C5.02241 1.84163 2.75 3.8252 2.75 6.40064V17.6044C2.75 20.4809 5.5476 22.5265 8.28862 21.6544L12.2886 20.3816C14.0523 19.8205 15.25 18.1825 15.25 16.3317V15.5C15.25 15.0858 14.9142 14.75 14.5 14.75C14.0858 14.75 13.75 15.0858 13.75 15.5V16.3317C13.75 17.5293 12.975 18.5891 11.8338 18.9523L7.83381 20.225C6.06021 20.7893 4.25 19.4657 4.25 17.6044V6.40064Z" fill="#190D03"></path>
    <path d="M16.9252 8.51825C17.1913 8.2008 17.6643 8.15914 17.9818 8.42521L20.6178 10.6346C21.4608 11.341 21.4608 12.6583 20.6178 13.3648L17.9819 15.5748C17.6644 15.8409 17.1914 15.7993 16.9253 15.4819C16.6592 15.1644 16.7008 14.6914 17.0182 14.4253L19.0164 12.75H9C8.58579 12.75 8.25 12.4142 8.25 12C8.25 11.5858 8.58579 11.25 9 11.25H19.017L17.0183 9.57483C16.7008 9.30875 16.6591 8.83571 16.9252 8.51825Z" fill="#190D03"></path>
  </symbol>
  <symbol fill="none" xmlns="http://www.w3.org/2000/svg" viewBox="0 0 24 24" id="notification-bell-ringing">
    <path fill-rule="evenodd" clip-rule="evenodd" d="M12.0002 2.25C8.32001 2.25 5.25022 5.06847 5.25022 8.64153V9.69723C5.25022 10.7247 4.9461 11.7291 4.37618 12.584C4.36613 12.599 4.35663 12.6145 4.3477 12.6302L3.96906 13.2984C3.47894 14.1633 3.31926 15.1751 3.51495 16.1479C3.52959 16.2207 3.55335 16.3222 3.59151 16.4448C4.05486 17.9332 5.50116 18.6986 6.69011 19.0567C7.04543 19.1637 7.42267 19.2581 7.81665 19.3398L7.86793 19.4217C8.96229 21.1684 10.4349 22.2 12.0508 22.2C13.6667 22.2 15.1393 21.1684 16.2336 19.4217L16.3004 19.3152C16.6543 19.2388 16.9941 19.1521 17.3159 19.055C18.5204 18.6916 19.9095 17.9122 20.3923 16.4556C20.4104 16.4008 20.4255 16.3522 20.437 16.315C20.45 16.2731 20.4556 16.2551 20.4596 16.2436C20.4702 16.2126 20.4788 16.1809 20.4853 16.1488C20.6824 15.175 20.5212 14.1628 20.0314 13.2984L19.6527 12.6302C19.6438 12.6145 19.6343 12.599 19.6243 12.584C19.0543 11.7291 18.7502 10.7247 18.7502 9.69723V8.64153C18.7502 5.06847 15.6804 2.25 12.0002 2.25ZM14.1888 19.6352C12.7973 19.7681 11.3186 19.7715 9.92262 19.6455C10.638 20.3892 11.3824 20.7 12.0508 20.7C12.7223 20.7 13.4704 20.3863 14.1888 19.6352ZM6.75022 8.64153C6.75022 5.98312 9.0595 3.75 12.0002 3.75C14.9409 3.75 17.2502 5.98312 17.2502 8.64153V9.69723C17.2502 11.0115 17.6365 12.2965 18.3607 13.3927L18.7263 14.0379C19.0312 14.576 19.136 15.204 19.0229 15.8111L19.0067 15.863L19.0041 15.8714C18.9928 15.9079 18.9815 15.9442 18.9684 15.9836C18.7159 16.7455 17.9157 17.3073 16.8826 17.6189C14.1506 18.4432 9.85676 18.4437 7.12262 17.6204C6.06682 17.3024 5.2572 16.749 5.02372 15.9989C5.00291 15.9321 4.99137 15.8813 4.98549 15.8521C4.8606 15.2313 4.9628 14.5873 5.2741 14.0379L5.63973 13.3927C6.36395 12.2965 6.75022 11.0115 6.75022 9.69723V8.64153Z" fill="#190D03"></path>
    <path d="M20.3876 8.2512C20.8012 8.27461 21.1174 8.62884 21.094 9.04239C21.06 9.64315 21.0781 10.0599 21.1743 10.4179C21.2661 10.7597 21.4425 11.0956 21.8042 11.4999C22.0804 11.8086 22.054 12.2827 21.7453 12.5589C21.4366 12.8351 20.9625 12.8088 20.6863 12.5001C20.198 11.9544 19.889 11.4154 19.7256 10.8071C19.5666 10.2151 19.5597 9.60685 19.5964 8.95761C19.6198 8.54406 19.9741 8.22779 20.3876 8.2512Z" fill="#190D03"></path>
    <path d="M4.40272 8.95761C4.37931 8.54406 4.02508 8.22779 3.61153 8.2512C3.19798 8.27461 2.88171 8.62884 2.90512 9.04239C2.93912 9.64315 2.92105 10.0599 2.82488 10.4179C2.73308 10.7597 2.5567 11.0956 2.19498 11.4999C1.91879 11.8086 1.94513 12.2827 2.25382 12.5589C2.56251 12.8351 3.03665 12.8088 3.31284 12.5001C3.80113 11.9544 4.11012 11.4154 4.27352 10.8071C4.43255 10.2151 4.43947 9.60685 4.40272 8.95761Z" fill="#190D03"></path>
  </symbol>
  <symbol fill="none" xmlns="http://www.w3.org/2000/svg" viewBox="0 0 272 284" id="Order-Info">
    <path d="M0 26C0 11.6406 11.6406 0 26 0H246C260.359 0 272 11.6406 272 26C272 40.3594 260.359 52 246 52H26C11.6406 52 0 40.3594 0 26Z" fill="#2F0D0C"></path>
    <path d="M134.226 26.424C134.226 26.648 134.291 26.8253 134.422 26.956C134.562 27.0773 134.758 27.138 135.01 27.138H135.388C135.481 27.138 135.528 27.46 135.528 28.104C135.528 28.7013 135.481 29 135.388 29H135.066C134.683 29 134.403 28.9347 134.226 28.804C134.198 29.4947 134.016 30.106 133.68 30.638C133.344 31.1793 132.882 31.5993 132.294 31.898C131.715 32.1967 131.048 32.346 130.292 32.346H129.732C128.519 32.346 127.581 31.996 126.918 31.296C126.265 30.6053 125.938 29.6347 125.938 28.384V25.584H127.716V28.342C127.716 29.0513 127.879 29.5833 128.206 29.938C128.533 30.302 129.041 30.484 129.732 30.484H130.292C130.964 30.484 131.491 30.3067 131.874 29.952C132.257 29.5973 132.448 29.1073 132.448 28.482V24.184H134.226V26.424ZM128.822 23.974V22.378H130.726V23.974H128.822ZM135.755 27.138C136.016 27.138 136.198 27.0867 136.301 26.984C136.413 26.8813 136.469 26.7133 136.469 26.48V26.088C136.469 25.1827 136.725 24.4687 137.239 23.946C137.761 23.414 138.466 23.148 139.353 23.148C140.239 23.148 140.916 23.4047 141.383 23.918C141.859 24.422 142.097 25.15 142.097 26.102C142.097 27.0167 141.849 27.7307 141.355 28.244C140.86 28.748 140.169 29 139.283 29C138.816 29 138.429 28.944 138.121 28.832C137.813 28.7107 137.584 28.5427 137.435 28.328C137.257 28.5613 137.033 28.734 136.763 28.846C136.501 28.9487 136.165 29 135.755 29H135.391C135.297 29 135.251 28.7013 135.251 28.104C135.251 27.46 135.297 27.138 135.391 27.138H135.755ZM140.333 26.102C140.333 25.318 139.983 24.926 139.283 24.926C138.583 24.926 138.233 25.318 138.233 26.102C138.233 26.438 138.317 26.6993 138.485 26.886C138.662 27.0633 138.928 27.152 139.283 27.152C139.637 27.152 139.899 27.068 140.067 26.9C140.244 26.7227 140.333 26.4567 140.333 26.102ZM154.061 29.056C154.061 28.86 153.996 28.7153 153.865 28.622C153.744 28.5193 153.571 28.468 153.347 28.468H150.673V25.724C150.673 24.8933 150.92 24.2213 151.415 23.708C151.919 23.1947 152.586 22.938 153.417 22.938H155.321L155.433 24.744H153.431C153.142 24.744 152.908 24.8327 152.731 25.01C152.554 25.178 152.465 25.4067 152.465 25.696V26.606H153.641C154.406 26.606 154.962 26.8067 155.307 27.208C155.662 27.6093 155.839 28.188 155.839 28.944C155.839 29.56 155.666 30.1247 155.321 30.638C154.985 31.1607 154.514 31.576 153.907 31.884C153.31 32.192 152.642 32.346 151.905 32.346H150.855C149.642 32.346 148.704 31.996 148.041 31.296C147.388 30.6053 147.061 29.6347 147.061 28.384V25.584H148.839V28.342C148.839 29.0513 149.002 29.5833 149.329 29.938C149.656 30.302 150.164 30.484 150.855 30.484H151.919C152.61 30.484 153.137 30.3533 153.501 30.092C153.874 29.84 154.061 29.4947 154.061 29.056ZM160.735 27.138C160.782 27.138 160.815 27.1987 160.833 27.32C160.861 27.4413 160.875 27.7027 160.875 28.104C160.875 28.4773 160.861 28.72 160.833 28.832C160.815 28.944 160.782 29 160.735 29H160.231C159.447 29 158.85 28.776 158.439 28.328C158.038 27.8707 157.837 27.222 157.837 26.382V19.984H159.629V26.256C159.629 26.5547 159.685 26.7787 159.797 26.928C159.919 27.068 160.105 27.138 160.357 27.138H160.735ZM169.586 24.576C169.922 24.94 170.165 25.2947 170.314 25.64C170.473 25.9853 170.552 26.3447 170.552 26.718C170.552 27.3993 170.314 27.95 169.838 28.37C169.372 28.79 168.737 29 167.934 29H166.366C165.778 29 165.354 28.986 165.092 28.958C164.831 28.9207 164.612 28.846 164.434 28.734C164.248 28.8367 164 28.9067 163.692 28.944C163.394 28.9813 162.988 29 162.474 29H160.738C160.645 29 160.598 28.7013 160.598 28.104C160.598 27.46 160.645 27.138 160.738 27.138H162.208C162.078 26.9607 161.97 26.746 161.886 26.494C161.802 26.242 161.76 25.99 161.76 25.738C161.76 25.2153 161.882 24.7393 162.124 24.31C162.367 23.8807 162.703 23.5447 163.132 23.302C163.562 23.0593 164.042 22.938 164.574 22.938C165.05 22.938 165.489 23.05 165.89 23.274L165.498 22.868L166.772 21.552L169.586 24.576ZM167.906 27.138C168.466 27.138 168.746 26.9607 168.746 26.606C168.746 26.4753 168.709 26.3493 168.634 26.228C168.569 26.0973 168.434 25.92 168.228 25.696L166.94 24.352C167.136 24.7627 167.234 25.178 167.234 25.598C167.234 25.8967 167.174 26.186 167.052 26.466C166.94 26.746 166.786 26.97 166.59 27.138H167.906ZM164.434 27.138C165.172 26.802 165.54 26.34 165.54 25.752C165.54 25.4533 165.447 25.206 165.26 25.01C165.074 24.8047 164.822 24.702 164.504 24.702C164.187 24.702 163.93 24.8047 163.734 25.01C163.548 25.206 163.454 25.4533 163.454 25.752C163.454 26.34 163.781 26.802 164.434 27.138ZM187.483 26.298C187.483 26.858 187.781 27.138 188.379 27.138C188.985 27.138 189.289 26.858 189.289 26.298V24.184H191.067V26.312C191.067 27.1613 190.829 27.824 190.353 28.3C189.886 28.7667 189.228 29 188.379 29C187.455 29 186.839 28.7527 186.531 28.258C186.185 28.7527 185.597 29 184.767 29C184.319 29 183.987 28.9347 183.773 28.804C183.745 29.504 183.563 30.12 183.227 30.652C182.9 31.184 182.443 31.5993 181.855 31.898C181.276 32.1967 180.609 32.346 179.853 32.346H179.293C178.079 32.346 177.141 31.996 176.479 31.296C175.825 30.6053 175.499 29.6347 175.499 28.384V25.584H177.277V28.342C177.277 29.0513 177.44 29.5833 177.767 29.938C178.093 30.302 178.602 30.484 179.293 30.484H179.853C180.525 30.484 181.052 30.3067 181.435 29.952C181.817 29.5973 182.009 29.1073 182.009 28.482V24.184H183.787V26.298C183.787 26.858 184.104 27.138 184.739 27.138C185.056 27.138 185.294 27.0633 185.453 26.914C185.621 26.7647 185.705 26.5593 185.705 26.298V24.184H187.483V26.298ZM187.427 18.934V20.46H185.747V18.934H187.427ZM188.561 21.132V22.728H184.613V21.132H188.561ZM195.359 28.482C195.359 29.2473 195.205 29.9193 194.897 30.498C194.589 31.086 194.146 31.5387 193.567 31.856C192.998 32.1827 192.335 32.346 191.579 32.346H190.403L190.249 30.484H191.551C192.195 30.484 192.695 30.3067 193.049 29.952C193.404 29.6067 193.581 29.1167 193.581 28.482V24.184H195.359V28.482ZM200.261 27.138C200.307 27.138 200.34 27.1987 200.359 27.32C200.387 27.4413 200.401 27.7027 200.401 28.104C200.401 28.4773 200.387 28.72 200.359 28.832C200.34 28.944 200.307 29 200.261 29H199.757C198.973 29 198.375 28.776 197.965 28.328C197.563 27.8707 197.363 27.222 197.363 26.382V19.984H199.155V26.256C199.155 26.5547 199.211 26.7787 199.323 26.928C199.444 27.068 199.631 27.138 199.883 27.138H200.261ZM201.79 27.138C201.631 26.97 201.505 26.7507 201.412 26.48C201.328 26.2093 201.286 25.9387 201.286 25.668C201.286 25.1547 201.407 24.6833 201.65 24.254C201.902 23.8247 202.242 23.484 202.672 23.232C203.101 22.98 203.577 22.854 204.1 22.854C204.66 22.854 205.15 22.9707 205.57 23.204C205.999 23.428 206.33 23.75 206.564 24.17C206.806 24.59 206.928 25.066 206.928 25.598C206.928 26.214 206.732 26.7273 206.34 27.138H207.95C208.043 27.138 208.09 27.46 208.09 28.104C208.09 28.7013 208.043 29 207.95 29H206.046C205.514 29 205.098 28.9813 204.8 28.944C204.501 28.8973 204.268 28.8227 204.1 28.72C203.932 28.8227 203.689 28.8973 203.372 28.944C203.064 28.9813 202.662 29 202.168 29H200.264C200.17 29 200.124 28.7013 200.124 28.104C200.124 27.46 200.17 27.138 200.264 27.138H201.79ZM204.1 24.632C203.782 24.632 203.526 24.7347 203.33 24.94C203.143 25.136 203.05 25.3833 203.05 25.682C203.05 25.9713 203.143 26.2467 203.33 26.508C203.516 26.76 203.773 26.97 204.1 27.138C204.445 26.9793 204.706 26.7693 204.884 26.508C205.061 26.2373 205.15 25.962 205.15 25.682C205.15 25.3553 205.056 25.0987 204.87 24.912C204.683 24.7253 204.426 24.632 204.1 24.632ZM203.148 21.454V19.858H205.052V21.454H203.148ZM209.025 27.138C209.343 27.138 209.581 27.0633 209.739 26.914C209.907 26.7647 209.991 26.5593 209.991 26.298V24.184H211.769V26.298C211.769 26.858 212.091 27.138 212.735 27.138C213.053 27.138 213.291 27.0633 213.449 26.914C213.617 26.7647 213.701 26.5593 213.701 26.298V24.184H215.479V26.298C215.479 26.858 215.778 27.138 216.375 27.138C216.973 27.138 217.271 26.858 217.271 26.298V24.184H219.049V26.312C219.049 27.1613 218.811 27.824 218.335 28.3C217.869 28.7667 217.215 29 216.375 29C215.881 29 215.484 28.9393 215.185 28.818C214.887 28.6873 214.663 28.5007 214.513 28.258C214.336 28.5007 214.103 28.6873 213.813 28.818C213.533 28.9393 213.174 29 212.735 29C212.222 29 211.811 28.9393 211.503 28.818C211.195 28.6873 210.967 28.5007 210.817 28.258C210.453 28.7527 209.856 29 209.025 29H207.947C207.854 29 207.807 28.7013 207.807 28.104C207.807 27.46 207.854 27.138 207.947 27.138H209.025Z" fill="white"></path>
    <path d="M248.175 28.8279C248.356 28.4554 248.201 28.0066 247.828 27.8255C247.455 27.6444 247.007 27.7996 246.826 28.1721C246.765 28.2964 246.462 28.7071 245.926 29.0899C245.409 29.4596 244.749 29.75 244 29.75C242.428 29.75 241.589 28.8016 241.129 28.0921C240.904 27.7445 240.44 27.6453 240.092 27.8706C239.745 28.0959 239.645 28.5603 239.871 28.9079C240.448 29.7984 241.683 31.25 244 31.25C245.144 31.25 246.104 30.8071 246.799 30.3101C247.475 29.8262 247.976 29.2369 248.175 28.8279Z" fill="white"></path>
    <path fill-rule="evenodd" clip-rule="evenodd" d="M245.507 16.5804L246.382 17.1534L254.409 22.371C254.756 22.5968 254.855 23.0613 254.629 23.4086C254.403 23.7559 253.939 23.8545 253.591 23.6287L252.713 23.0575C252.737 23.2431 252.75 23.4314 252.75 23.6215V32C252.75 34.3473 250.847 36.25 248.5 36.25H239.5C237.153 36.25 235.25 34.3473 235.25 32V23.6215C235.25 23.4314 235.263 23.2431 235.288 23.0575L234.409 23.6287C234.062 23.8545 233.597 23.7559 233.371 23.4086C233.146 23.0613 233.244 22.5968 233.591 22.371L241.619 17.1534L242.493 16.5804C243.408 15.981 244.592 15.981 245.507 16.5804ZM244.681 17.8372L245.562 18.4096L250.007 21.321C250.783 21.8292 251.25 22.6941 251.25 23.6215V32C251.25 33.5188 250.019 34.75 248.5 34.75H239.5C237.981 34.75 236.75 33.5188 236.75 32V23.6215C236.75 22.6941 237.218 21.8292 237.993 21.321L242.438 18.4096L243.319 17.8372C243.733 17.5679 244.267 17.5679 244.681 17.8372Z" fill="white"></path>
    <path d="M103.26 105.14C103.26 104.636 102.966 104.384 102.378 104.384H99.718V101.752C99.718 100.949 99.956 100.301 100.432 99.806C100.917 99.3113 101.571 99.064 102.392 99.064H104.212L104.31 100.52H102.378C102.014 100.52 101.72 100.632 101.496 100.856C101.281 101.08 101.174 101.369 101.174 101.724V102.886H102.63C104.021 102.886 104.716 103.614 104.716 105.07C104.716 105.667 104.543 106.218 104.198 106.722C103.862 107.235 103.395 107.641 102.798 107.94C102.21 108.239 101.557 108.388 100.838 108.388H99.774C98.5793 108.388 97.66 108.043 97.016 107.352C96.372 106.671 96.05 105.709 96.05 104.468V101.752H97.492V104.44C97.492 106.064 98.2573 106.876 99.788 106.876H100.838C101.585 106.876 102.173 106.713 102.602 106.386C103.041 106.069 103.26 105.653 103.26 105.14ZM105.796 106.876C106.515 106.876 107.075 106.671 107.476 106.26C107.887 105.859 108.092 105.289 108.092 104.552V100.352H109.548V102.508C109.548 103.161 109.903 103.488 110.612 103.488H110.808C110.901 103.488 110.948 103.749 110.948 104.272C110.948 104.757 110.901 105 110.808 105H110.612C110.379 105 110.164 104.967 109.968 104.902C109.781 104.827 109.641 104.729 109.548 104.608V104.692C109.529 105.42 109.361 106.064 109.044 106.624C108.736 107.184 108.302 107.618 107.742 107.926C107.191 108.234 106.547 108.388 105.81 108.388H105.404L105.278 106.876H105.796ZM114.655 102.648C114.655 103.385 114.435 103.964 113.997 104.384C113.558 104.795 112.97 105 112.233 105H110.805C110.711 105 110.665 104.757 110.665 104.272C110.665 103.749 110.711 103.488 110.805 103.488H112.233C112.522 103.488 112.755 103.413 112.933 103.264C113.11 103.105 113.199 102.886 113.199 102.606V100.352H114.655V102.648ZM111.085 108.01V106.638H112.765V108.01H111.085ZM118.954 104.552C118.954 105.327 118.8 106.003 118.492 106.582C118.184 107.161 117.746 107.604 117.176 107.912C116.616 108.229 115.963 108.388 115.216 108.388H114.81L114.684 106.876H115.202C115.921 106.876 116.481 106.671 116.882 106.26C117.293 105.859 117.498 105.289 117.498 104.552V100.352H118.954V104.552ZM123.87 103.488C123.917 103.488 123.95 103.539 123.968 103.642C123.996 103.745 124.01 103.955 124.01 104.272C124.01 104.571 123.996 104.767 123.968 104.86C123.95 104.953 123.917 105 123.87 105H123.45C122.704 105 122.139 104.781 121.756 104.342C121.374 103.903 121.182 103.283 121.182 102.48V95.956H122.624V102.382C122.624 102.765 122.694 103.045 122.834 103.222C122.984 103.399 123.217 103.488 123.534 103.488H123.87ZM127.697 103.488C128.052 103.488 128.327 103.427 128.523 103.306C128.719 103.175 128.817 103.003 128.817 102.788C128.817 102.611 128.775 102.447 128.691 102.298C128.607 102.149 128.472 101.976 128.285 101.78L125.121 98.658V97.44L130.301 95.41L130.735 96.796L126.857 98.28L129.377 100.828C129.965 101.407 130.259 102.074 130.259 102.83C130.259 103.474 130.035 103.997 129.587 104.398C129.139 104.799 128.509 105 127.697 105H123.875C123.782 105 123.735 104.757 123.735 104.272C123.735 103.749 123.782 103.488 123.875 103.488H127.697ZM143.254 103.488C143.543 103.488 143.777 103.413 143.954 103.264C144.131 103.105 144.22 102.891 144.22 102.62V100.352H145.676V102.676C145.676 103.395 145.457 103.964 145.018 104.384C144.579 104.795 143.991 105 143.254 105H138.424C137.593 105 136.963 104.785 136.534 104.356C136.105 103.917 135.89 103.301 135.89 102.508V100.352H137.332V102.312C137.332 102.704 137.425 102.998 137.612 103.194C137.799 103.39 138.093 103.488 138.494 103.488H143.254ZM139.936 108.01V106.638H141.616V108.01H139.936ZM150.585 103.488C150.632 103.488 150.664 103.539 150.683 103.642C150.711 103.745 150.725 103.955 150.725 104.272C150.725 104.571 150.711 104.767 150.683 104.86C150.664 104.953 150.632 105 150.585 105H150.165C149.418 105 148.854 104.781 148.471 104.342C148.088 103.903 147.897 103.283 147.897 102.48V95.956H149.339V102.382C149.339 102.765 149.409 103.045 149.549 103.222C149.698 103.399 149.932 103.488 150.249 103.488H150.585ZM151.696 103.488C152.079 103.488 152.368 103.404 152.564 103.236C152.76 103.059 152.858 102.811 152.858 102.494V100.352H154.314V102.494C154.314 103.157 154.692 103.488 155.448 103.488C155.831 103.488 156.12 103.404 156.316 103.236C156.512 103.059 156.61 102.811 156.61 102.494V100.352H158.066V102.494C158.066 102.811 158.155 103.059 158.332 103.236C158.509 103.404 158.775 103.488 159.13 103.488C159.494 103.488 159.765 103.404 159.942 103.236C160.129 103.059 160.222 102.811 160.222 102.494V100.352H161.664V102.494C161.664 103.157 161.986 103.488 162.63 103.488H163.12C163.213 103.488 163.26 103.749 163.26 104.272C163.26 104.757 163.213 105 163.12 105H162.63C162.173 105 161.799 104.939 161.51 104.818C161.23 104.697 161.02 104.505 160.88 104.244C160.703 104.505 160.469 104.697 160.18 104.818C159.9 104.939 159.55 105 159.13 105C158.178 105 157.562 104.729 157.282 104.188C156.918 104.729 156.307 105 155.448 105C154.925 105 154.51 104.935 154.202 104.804C153.894 104.664 153.67 104.459 153.53 104.188C153.166 104.729 152.555 105 151.696 105H150.59C150.497 105 150.45 104.757 150.45 104.272C150.45 103.749 150.497 103.488 150.59 103.488H151.696ZM164.121 103.488C164.831 103.488 165.414 103.437 165.871 103.334C166.338 103.231 166.814 103.04 167.299 102.76L169.063 101.752C168.942 101.313 168.769 101.015 168.545 100.856C168.321 100.688 167.985 100.604 167.537 100.604H164.303L164.485 99.092H167.789C168.368 99.092 168.839 99.19 169.203 99.386C169.567 99.5727 169.871 99.89 170.113 100.338C170.356 100.786 170.571 101.416 170.757 102.228L167.971 103.978C167.346 104.37 166.744 104.641 166.165 104.79C165.596 104.93 164.891 105 164.051 105H163.113C163.02 105 162.973 104.757 162.973 104.272C162.973 103.749 163.02 103.488 163.113 103.488H164.121ZM183.066 103.488C183.356 103.488 183.589 103.413 183.766 103.264C183.944 103.105 184.032 102.891 184.032 102.62V100.352H185.488V102.676C185.488 103.395 185.269 103.964 184.83 104.384C184.392 104.795 183.804 105 183.066 105H178.236C177.406 105 176.776 104.785 176.346 104.356C175.917 103.917 175.702 103.301 175.702 102.508V100.352H177.144V102.312C177.144 102.704 177.238 102.998 177.424 103.194C177.611 103.39 177.905 103.488 178.306 103.488H183.066ZM182.492 97.944V99.288H178.684V97.944H182.492ZM190.398 103.488C190.444 103.488 190.477 103.539 190.496 103.642C190.524 103.745 190.538 103.955 190.538 104.272C190.538 104.571 190.524 104.767 190.496 104.86C190.477 104.953 190.444 105 190.398 105H189.978C189.231 105 188.666 104.781 188.284 104.342C187.901 103.903 187.71 103.283 187.71 102.48V95.956H189.152V102.382C189.152 102.765 189.222 103.045 189.362 103.222C189.511 103.399 189.744 103.488 190.062 103.488H190.398ZM191.872 103.488C191.602 103.143 191.466 102.713 191.466 102.2C191.466 101.668 191.583 101.187 191.816 100.758C192.05 100.329 192.376 99.9927 192.796 99.75C193.226 99.5073 193.72 99.386 194.28 99.386C194.644 99.386 194.99 99.4327 195.316 99.526C195.643 99.6193 195.988 99.778 196.352 100.002L195.862 101.206C195.321 100.963 194.794 100.842 194.28 100.842C193.888 100.842 193.562 100.968 193.3 101.22C193.048 101.463 192.922 101.766 192.922 102.13C192.922 102.531 193.039 102.858 193.272 103.11C193.506 103.362 193.828 103.488 194.238 103.488H196.716L196.59 105H190.402C190.309 105 190.262 104.757 190.262 104.272C190.262 103.749 190.309 103.488 190.402 103.488H191.872ZM200.39 95.956V103.488H202C202.289 103.488 202.522 103.409 202.7 103.25C202.877 103.091 202.966 102.877 202.966 102.606V95.956H204.408V102.536C204.408 102.853 204.492 103.091 204.66 103.25C204.828 103.409 205.061 103.488 205.36 103.488H205.752C205.845 103.488 205.892 103.749 205.892 104.272C205.892 104.757 205.845 105 205.752 105H205.304C204.902 105 204.562 104.935 204.282 104.804C204.011 104.673 203.815 104.482 203.694 104.23C203.358 104.743 202.793 105 202 105H198.948V95.956H200.39ZM208.416 95.956V101.206C209.377 99.8247 210.409 99.134 211.51 99.134C212.023 99.134 212.485 99.26 212.896 99.512C213.307 99.7547 213.624 100.1 213.848 100.548C214.081 100.987 214.198 101.491 214.198 102.06C214.198 102.947 213.923 103.661 213.372 104.202C212.831 104.734 212.103 105 211.188 105H205.756C205.663 105 205.616 104.757 205.616 104.272C205.616 103.749 205.663 103.488 205.756 103.488H206.96V95.956H208.416ZM211.188 103.488C211.683 103.488 212.065 103.362 212.336 103.11C212.616 102.858 212.756 102.508 212.756 102.06C212.756 101.621 212.625 101.267 212.364 100.996C212.112 100.725 211.79 100.59 211.398 100.59C210.931 100.59 210.455 100.823 209.97 101.29C209.485 101.757 208.934 102.489 208.318 103.488H211.188ZM216.434 95.956H217.876V105H216.434V95.956Z" fill="#130505"></path>
    <path fill-rule="evenodd" clip-rule="evenodd" d="M244 92.25C241.377 92.25 239.25 94.3766 239.25 97C239.25 99.6234 241.377 101.75 244 101.75C246.624 101.75 248.75 99.6234 248.75 97C248.75 94.3766 246.624 92.25 244 92.25ZM240.75 97C240.75 95.2051 242.205 93.75 244 93.75C245.795 93.75 247.25 95.2051 247.25 97C247.25 98.7949 245.795 100.25 244 100.25C242.205 100.25 240.75 98.7949 240.75 97Z" fill="#2F0D0C"></path>
    <path d="M238.779 105.859C239.183 105.172 239.921 104.75 240.718 104.75H246.502C246.916 104.75 247.252 104.414 247.252 104C247.252 103.586 246.916 103.25 246.502 103.25H240.718C239.389 103.25 238.159 103.953 237.486 105.098L236.824 106.223C236.302 107.111 236.078 108.148 236.291 109.08C236.515 110.053 237.206 110.845 238.338 111.138C240.205 111.62 242.684 111.812 245.027 111.733C245.441 111.719 245.766 111.372 245.752 110.958C245.738 110.544 245.391 110.22 244.977 110.234C242.725 110.31 240.398 110.12 238.713 109.685C238.138 109.537 237.855 109.185 237.753 108.744C237.643 108.263 237.745 107.616 238.117 106.984L238.779 105.859Z" fill="#2F0D0C"></path>
    <path fill-rule="evenodd" clip-rule="evenodd" d="M253.129 110.318C253.522 109.725 253.75 109.014 253.75 108.25C253.75 106.179 252.071 104.5 250 104.5C247.929 104.5 246.25 106.179 246.25 108.25C246.25 110.321 247.929 112 250 112C250.764 112 251.475 111.771 252.068 111.379L252.97 112.281C253.263 112.574 253.738 112.574 254.031 112.281C254.324 111.988 254.324 111.513 254.031 111.22L253.129 110.318ZM247.75 108.25C247.75 107.007 248.758 106 250 106C251.243 106 252.25 107.007 252.25 108.25C252.25 109.493 251.243 110.5 250 110.5C248.758 110.5 247.75 109.493 247.75 108.25Z" fill="#2F0D0C"></path>
    <rect y="164" width="32" height="32" rx="16" fill="#CC312D"></rect>
    <path d="M14.176 180.736C13.44 180.725 12.9013 180.469 12.56 179.968C12.2293 179.467 12 178.811 11.872 178L12.688 177.504C12.7627 178.048 12.88 178.443 13.04 178.688C13.2 178.923 13.4987 179.04 13.936 179.04H14.224C14.5333 179.04 14.7787 178.96 14.96 178.8C15.1413 178.64 15.2533 178.432 15.296 178.176L15.856 175.456L17.28 175.712L16.832 177.968C16.8213 178.011 16.816 178.069 16.816 178.144C16.816 178.389 16.9013 178.603 17.072 178.784C17.2533 178.955 17.472 179.04 17.728 179.04H19.2V175.248H20.624V178.56C20.624 179.232 20.448 179.765 20.096 180.16C19.7547 180.544 19.2533 180.736 18.592 180.736H17.728C16.928 180.736 16.3573 180.4 16.016 179.728C15.8133 180.059 15.5467 180.309 15.216 180.48C14.896 180.651 14.5493 180.736 14.176 180.736ZM11.424 180.896C11.424 179.883 11.376 178.992 11.28 178.224C11.184 177.456 11.0347 176.501 10.832 175.36L12.32 174.896C12.512 176.112 12.6453 177.109 12.72 177.888C12.8053 178.656 12.848 179.589 12.848 180.688V186H11.424V180.896Z" fill="white"></path>
    <path d="M179.878 181.488C179.925 181.488 179.957 181.539 179.976 181.642C180.004 181.745 180.018 181.955 180.018 182.272C180.018 182.571 180.004 182.767 179.976 182.86C179.957 182.953 179.925 183 179.878 183H179.458C178.711 183 178.147 182.781 177.764 182.342C177.381 181.903 177.19 181.283 177.19 180.48V173.956H178.632V180.382C178.632 180.765 178.702 181.045 178.842 181.222C178.991 181.399 179.225 181.488 179.542 181.488H179.878ZM181.717 181.488C181.502 181.292 181.329 181.045 181.199 180.746C181.068 180.447 181.003 180.144 181.003 179.836C181.003 179.313 181.124 178.847 181.367 178.436C181.609 178.016 181.941 177.689 182.361 177.456C182.781 177.213 183.252 177.092 183.775 177.092C184.269 177.092 184.713 177.209 185.105 177.442C185.506 177.675 185.819 177.993 186.043 178.394C186.276 178.786 186.393 179.225 186.393 179.71C186.393 180.065 186.309 180.401 186.141 180.718C185.982 181.035 185.763 181.292 185.483 181.488H187.191C187.536 181.488 187.797 181.427 187.975 181.306C188.152 181.185 188.241 181.012 188.241 180.788C188.241 180.62 188.199 180.461 188.115 180.312C188.04 180.153 187.886 179.957 187.653 179.724L184.881 176.798L185.917 175.72L188.759 178.772C189.085 179.117 189.323 179.458 189.473 179.794C189.622 180.13 189.697 180.475 189.697 180.83C189.697 181.483 189.473 182.011 189.025 182.412C188.577 182.804 187.965 183 187.191 183H185.623C185.016 183 184.577 182.986 184.307 182.958C184.045 182.921 183.831 182.851 183.663 182.748C183.495 182.841 183.257 182.907 182.949 182.944C182.65 182.981 182.221 183 181.661 183H179.883C179.789 183 179.743 182.757 179.743 182.272C179.743 181.749 179.789 181.488 179.883 181.488H181.717ZM183.635 181.474C184.073 181.287 184.409 181.054 184.643 180.774C184.876 180.494 184.993 180.181 184.993 179.836C184.993 179.453 184.876 179.145 184.643 178.912C184.409 178.669 184.097 178.548 183.705 178.548C183.313 178.548 182.995 178.669 182.753 178.912C182.519 179.145 182.403 179.453 182.403 179.836C182.403 180.545 182.813 181.091 183.635 181.474ZM198.164 179.85C198.164 179.346 198.285 178.959 198.528 178.688H197.982C197.506 178.688 197.142 178.814 196.89 179.066C196.638 179.309 196.512 179.654 196.512 180.102V186.388H195.07V180.102C195.07 179.225 195.336 178.529 195.868 178.016C196.409 177.493 197.137 177.232 198.052 177.232H200.992C201.841 177.232 202.476 177.442 202.896 177.862C203.325 178.273 203.54 178.865 203.54 179.64V180.494C203.54 181.306 203.306 181.927 202.84 182.356C202.373 182.785 201.696 183 200.81 183C199.942 183 199.284 182.795 198.836 182.384C198.388 181.964 198.164 181.385 198.164 180.648V179.85ZM200.88 181.488C201.272 181.488 201.57 181.409 201.776 181.25C201.981 181.091 202.084 180.825 202.084 180.452V179.766C202.084 179.421 201.986 179.155 201.79 178.968C201.603 178.781 201.337 178.688 200.992 178.688H200.642C200.306 178.688 200.049 178.791 199.872 178.996C199.704 179.192 199.62 179.453 199.62 179.78V180.368C199.62 180.779 199.718 181.068 199.914 181.236C200.119 181.404 200.441 181.488 200.88 181.488ZM208.466 181.488C208.513 181.488 208.545 181.539 208.564 181.642C208.592 181.745 208.606 181.955 208.606 182.272C208.606 182.571 208.592 182.767 208.564 182.86C208.545 182.953 208.513 183 208.466 183H208.046C207.299 183 206.735 182.781 206.352 182.342C205.969 181.903 205.778 181.283 205.778 180.48V173.956H207.22V180.382C207.22 180.765 207.29 181.045 207.43 181.222C207.579 181.399 207.813 181.488 208.13 181.488H208.466ZM211.089 181.488C211.387 181.488 211.625 181.413 211.803 181.264C211.989 181.105 212.083 180.886 212.083 180.606V178.352H213.525V180.55C213.525 181.175 213.847 181.488 214.491 181.488H214.981C215.074 181.488 215.121 181.745 215.121 182.258C215.121 182.753 215.074 183 214.981 183H214.435C213.613 183 213.067 182.748 212.797 182.244C212.47 182.748 211.901 183 211.089 183H208.471C208.377 183 208.331 182.757 208.331 182.272C208.331 181.749 208.377 181.488 208.471 181.488H211.089ZM212.055 184.638V185.982H208.247V184.638H212.055ZM218.829 180.648C218.829 181.385 218.609 181.964 218.171 182.384C217.732 182.795 217.144 183 216.407 183H214.979C214.885 183 214.839 182.757 214.839 182.272C214.839 181.749 214.885 181.488 214.979 181.488H216.407C216.696 181.488 216.929 181.413 217.107 181.264C217.284 181.105 217.373 180.886 217.373 180.606V178.352H218.829V180.648ZM218.003 184.638V185.982H214.195V184.638H218.003ZM215.399 188.04V186.738H216.799V188.04H215.399Z" fill="#130505"></path>
    <path fill-rule="evenodd" clip-rule="evenodd" d="M244 170.25C240.32 170.25 237.25 173.068 237.25 176.642V177.697C237.25 178.725 236.946 179.729 236.376 180.584C236.366 180.599 236.357 180.614 236.348 180.63L235.969 181.298C235.479 182.163 235.319 183.175 235.515 184.148C235.53 184.221 235.553 184.322 235.592 184.445C236.055 185.933 237.501 186.699 238.69 187.057C239.045 187.164 239.423 187.258 239.817 187.34L239.868 187.422C240.962 189.168 242.435 190.2 244.051 190.2C245.667 190.2 247.139 189.168 248.234 187.422L248.3 187.315C248.654 187.239 248.994 187.152 249.316 187.055C250.52 186.692 251.909 185.912 252.392 184.456C252.41 184.401 252.425 184.352 252.437 184.315C252.45 184.273 252.456 184.255 252.46 184.244C252.47 184.213 252.479 184.181 252.485 184.149C252.682 183.175 252.521 182.163 252.031 181.298L251.653 180.63C251.644 180.614 251.634 180.599 251.624 180.584C251.054 179.729 250.75 178.725 250.75 177.697V176.642C250.75 173.068 247.68 170.25 244 170.25ZM246.189 187.635C244.797 187.768 243.319 187.772 241.923 187.645C242.638 188.389 243.382 188.7 244.051 188.7C244.722 188.7 245.47 188.386 246.189 187.635ZM238.75 176.642C238.75 173.983 241.06 171.75 244 171.75C246.941 171.75 249.25 173.983 249.25 176.642V177.697C249.25 179.011 249.636 180.297 250.361 181.393L250.726 182.038C251.031 182.576 251.136 183.204 251.023 183.811L251.007 183.863L251.004 183.871C250.993 183.908 250.982 183.944 250.968 183.984C250.716 184.746 249.916 185.307 248.883 185.619C246.151 186.443 241.857 186.444 239.123 185.62C238.067 185.302 237.257 184.749 237.024 183.999C237.003 183.932 236.991 183.881 236.985 183.852C236.861 183.231 236.963 182.587 237.274 182.038L237.64 181.393C238.364 180.297 238.75 179.011 238.75 177.697V176.642Z" fill="#190D03"></path>
    <path d="M252.388 176.251C252.801 176.275 253.117 176.629 253.094 177.042C253.06 177.643 253.078 178.06 253.174 178.418C253.266 178.76 253.442 179.096 253.804 179.5C254.08 179.809 254.054 180.283 253.745 180.559C253.437 180.835 252.963 180.809 252.686 180.5C252.198 179.954 251.889 179.415 251.726 178.807C251.567 178.215 251.56 177.607 251.596 176.958C251.62 176.544 251.974 176.228 252.388 176.251Z" fill="#190D03"></path>
    <path d="M236.403 176.958C236.379 176.544 236.025 176.228 235.612 176.251C235.198 176.275 234.882 176.629 234.905 177.042C234.939 177.643 234.921 178.06 234.825 178.418C234.733 178.76 234.557 179.096 234.195 179.5C233.919 179.809 233.945 180.283 234.254 180.559C234.563 180.835 235.037 180.809 235.313 180.5C235.801 179.954 236.11 179.415 236.274 178.807C236.433 178.215 236.439 177.607 236.403 176.958Z" fill="#190D03"></path>
    <path d="M172.226 258.62C172.226 258.891 172.305 259.105 172.464 259.264C172.632 259.413 172.87 259.488 173.178 259.488H173.5C173.593 259.488 173.64 259.749 173.64 260.272C173.64 260.757 173.593 261 173.5 261H173.234C173.019 261 172.819 260.972 172.632 260.916C172.455 260.86 172.319 260.79 172.226 260.706V260.776C172.207 261.476 172.035 262.101 171.708 262.652C171.381 263.203 170.929 263.627 170.35 263.926C169.771 264.234 169.109 264.388 168.362 264.388H167.774C166.579 264.388 165.66 264.043 165.016 263.352C164.372 262.671 164.05 261.709 164.05 260.468V257.752H165.492V260.44C165.492 262.064 166.257 262.876 167.788 262.876H168.362C169.109 262.876 169.697 262.671 170.126 262.26C170.555 261.849 170.77 261.285 170.77 260.566V256.352H172.226V258.62ZM167.018 256.016V254.644H168.698V256.016H167.018ZM173.836 259.488C174.144 259.488 174.363 259.427 174.494 259.306C174.634 259.175 174.704 258.975 174.704 258.704V258.214C174.704 257.318 174.951 256.609 175.446 256.086C175.95 255.563 176.631 255.302 177.49 255.302C178.349 255.302 179.007 255.554 179.464 256.058C179.921 256.553 180.15 257.267 180.15 258.2C180.15 259.087 179.907 259.777 179.422 260.272C178.946 260.757 178.283 261 177.434 261C176.958 261 176.557 260.935 176.23 260.804C175.903 260.664 175.665 260.473 175.516 260.23C175.348 260.501 175.129 260.697 174.858 260.818C174.597 260.939 174.256 261 173.836 261H173.5C173.407 261 173.36 260.757 173.36 260.272C173.36 259.749 173.407 259.488 173.5 259.488H173.836ZM178.708 258.2C178.708 257.715 178.601 257.355 178.386 257.122C178.181 256.879 177.863 256.758 177.434 256.758C177.005 256.758 176.683 256.879 176.468 257.122C176.263 257.355 176.16 257.719 176.16 258.214C176.16 258.625 176.267 258.942 176.482 259.166C176.697 259.381 177.014 259.488 177.434 259.488C177.863 259.488 178.181 259.385 178.386 259.18C178.601 258.965 178.708 258.639 178.708 258.2ZM192.893 259.488C193.182 259.488 193.415 259.413 193.593 259.264C193.77 259.105 193.859 258.891 193.859 258.62V256.352H195.315V258.676C195.315 259.395 195.095 259.964 194.657 260.384C194.218 260.795 193.63 261 192.893 261H188.063C187.232 261 186.602 260.785 186.173 260.356C185.743 259.917 185.529 259.301 185.529 258.508V256.352H186.971V258.312C186.971 258.704 187.064 258.998 187.251 259.194C187.437 259.39 187.731 259.488 188.133 259.488H192.893ZM192.319 253.944V255.288H188.511V253.944H192.319ZM197.536 251.956H198.978V261H197.536V251.956ZM203.443 258.508C203.443 259.161 203.797 259.488 204.507 259.488H204.703C204.796 259.488 204.843 259.749 204.843 260.272C204.843 260.757 204.796 261 204.703 261H204.507C204.273 261 204.059 260.967 203.863 260.902C203.676 260.827 203.536 260.729 203.443 260.608V260.692C203.424 261.42 203.256 262.064 202.939 262.624C202.631 263.184 202.197 263.618 201.637 263.926C201.086 264.234 200.442 264.388 199.705 264.388H198.654L198.528 262.876H199.691C200.409 262.876 200.969 262.671 201.37 262.26C201.781 261.859 201.987 261.289 201.987 260.552V256.352H203.443V258.508ZM207.359 251.956V257.206C208.321 255.825 209.352 255.134 210.453 255.134C210.967 255.134 211.429 255.26 211.839 255.512C212.25 255.755 212.567 256.1 212.791 256.548C213.025 256.987 213.141 257.491 213.141 258.06C213.141 258.536 213.057 258.942 212.889 259.278C213.011 259.362 213.155 259.418 213.323 259.446C213.491 259.474 213.715 259.488 213.995 259.488H214.331C214.425 259.488 214.471 259.749 214.471 260.272C214.471 260.757 214.425 261 214.331 261H213.995C213.538 261 213.165 260.958 212.875 260.874C212.586 260.781 212.329 260.617 212.105 260.384C211.853 260.58 211.555 260.734 211.209 260.846C210.873 260.949 210.514 261 210.131 261H204.699C204.606 261 204.559 260.757 204.559 260.272C204.559 259.749 204.606 259.488 204.699 259.488H205.903V251.956H207.359ZM210.131 259.488C210.626 259.488 211.009 259.362 211.279 259.11C211.559 258.858 211.699 258.508 211.699 258.06C211.699 257.621 211.569 257.267 211.307 256.996C211.055 256.725 210.733 256.59 210.341 256.59C209.875 256.59 209.399 256.823 208.913 257.29C208.428 257.757 207.877 258.489 207.261 259.488H210.131ZM209.599 253.734V252.362H211.279V253.734H209.599ZM218.188 258.648C218.188 259.385 217.969 259.964 217.53 260.384C217.091 260.795 216.503 261 215.766 261H214.338C214.245 261 214.198 260.757 214.198 260.272C214.198 259.749 214.245 259.488 214.338 259.488H215.766C216.055 259.488 216.289 259.413 216.466 259.264C216.643 259.105 216.732 258.886 216.732 258.606V256.352H218.188V258.648ZM215.822 254.756V253.384H217.502V254.756H215.822Z" fill="#130505"></path>
    <path d="M238.25 258.25C238.25 257.836 238.586 257.5 239 257.5H245C245.414 257.5 245.75 257.836 245.75 258.25C245.75 258.664 245.414 259 245 259H239C238.586 259 238.25 258.664 238.25 258.25Z" fill="#2F0D0C"></path>
    <path d="M239 253.5C238.586 253.5 238.25 253.836 238.25 254.25C238.25 254.664 238.586 255 239 255H241.5C241.914 255 242.25 254.664 242.25 254.25C242.25 253.836 241.914 253.5 241.5 253.5H239Z" fill="#2F0D0C"></path>
    <path fill-rule="evenodd" clip-rule="evenodd" d="M233.25 252.5C233.25 250.153 235.153 248.25 237.5 248.25H250.5C252.847 248.25 254.75 250.153 254.75 252.5V260.5C254.75 262.847 252.847 264.75 250.5 264.75H244.725C244.46 264.75 244.205 264.855 244.018 265.043L241.512 267.548C240.241 268.819 238.067 268.161 237.715 266.399L237.493 265.287C237.43 264.975 237.156 264.75 236.837 264.75C234.856 264.75 233.25 263.144 233.25 261.163V252.5ZM237.5 249.75C235.981 249.75 234.75 250.981 234.75 252.5V261.163C234.75 262.316 235.684 263.25 236.837 263.25C237.871 263.25 238.761 263.98 238.964 264.993L239.186 266.105C239.303 266.692 240.028 266.911 240.452 266.488L242.957 263.982C243.426 263.513 244.062 263.25 244.725 263.25H250.5C252.019 263.25 253.25 262.019 253.25 260.5V252.5C253.25 250.981 252.019 249.75 250.5 249.75H237.5Z" fill="#2F0D0C"></path>
  </symbol>
  <symbol fill="none" xmlns="http://www.w3.org/2000/svg" viewBox="0 0 24 24" id="Pen">
    <path d="M4 22H20" stroke="#130505" stroke-width="1.5" stroke-linecap="round"></path>
    <path d="M13.8881 3.66293L14.6296 2.92142C15.8581 1.69286 17.85 1.69286 19.0786 2.92142C20.3071 4.14999 20.3071 6.14188 19.0786 7.37044L18.3371 8.11195M13.8881 3.66293C13.8881 3.66293 13.9807 5.23862 15.3711 6.62894C16.7614 8.01926 18.3371 8.11195 18.3371 8.11195M13.8881 3.66293L7.07106 10.4799C6.60933 10.9416 6.37846 11.1725 6.17992 11.4271C5.94571 11.7273 5.74491 12.0522 5.58107 12.396C5.44219 12.6874 5.33894 12.9972 5.13245 13.6167L4.25745 16.2417M18.3371 8.11195L11.5201 14.9289C11.0584 15.3907 10.8275 15.6215 10.5729 15.8201C10.2727 16.0543 9.94775 16.2551 9.60398 16.4189C9.31256 16.5578 9.00282 16.6611 8.38334 16.8675L5.75834 17.7426M5.75834 17.7426L5.11667 17.9564C4.81182 18.0581 4.47573 17.9787 4.2485 17.7515C4.02128 17.5243 3.94194 17.1882 4.04356 16.8833L4.25745 16.2417M5.75834 17.7426L4.25745 16.2417" stroke="#130505" stroke-width="1.5"></path>
  </symbol>
  <symbol fill="none" xmlns="http://www.w3.org/2000/svg" viewBox="0 0 24 24" id="Right">
    <path d="M15.9999 16L19.2928 12.7071C19.6834 12.3166 19.6834 11.6834 19.2928 11.2929L15.9999 8M18.9999 12L4.99994 12" stroke="#171717" stroke-width="1.5" stroke-linecap="round"></path>
  </symbol>
  <symbol fill="none" xmlns="http://www.w3.org/2000/svg" viewBox="0 0 28 28" id="Time-Circle">
    <circle cx="14" cy="14" r="11.6667" stroke="#2E7AF1" stroke-width="1.75"></circle>
    <path d="M14 9.33337V13.6879C14 13.8829 14.0975 14.065 14.2598 14.1732L17.5 16.3334" stroke="#2E7AF1" stroke-width="1.75" stroke-linecap="round"></path>
  </symbol>
  <symbol fill="none" xmlns="http://www.w3.org/2000/svg" viewBox="0 0 28 28" id="User">
    <circle cx="4.66667" cy="4.66667" r="4.66667" transform="matrix(-1 0 0 1 18.668 3.5)" stroke="#171717" stroke-width="1.75"></circle>
    <path d="M5.83203 19.7565C5.83203 18.7527 6.46303 17.8573 7.40831 17.5197C11.6701 15.9977 16.3273 15.9977 20.5891 17.5197C21.5344 17.8573 22.1654 18.7527 22.1654 19.7565V21.2912C22.1654 22.6766 20.9384 23.7407 19.567 23.5448L18.4535 23.3857C15.4986 22.9636 12.4988 22.9636 9.54393 23.3857L8.43044 23.5448C7.05902 23.7407 5.83203 22.6766 5.83203 21.2912V19.7565Z" stroke="#171717" stroke-width="1.75"></path>
  </symbol>
  <symbol fill="none" xmlns="http://www.w3.org/2000/svg" viewBox="0 0 28 28" id="User-SEARCH">
    <circle cx="4.66667" cy="4.66667" r="4.66667" transform="matrix(-1 0 0 1 18.668 3.5)" stroke="#171717" stroke-width="1.75"></circle>
    <path d="M5.83203 19.7565C5.83203 18.7527 6.46303 17.8573 7.40831 17.5197C11.6701 15.9977 16.3273 15.9977 20.5891 17.5197C21.5344 17.8573 22.1654 18.7527 22.1654 19.7565V21.2912C22.1654 22.6766 20.9384 23.7407 19.567 23.5448L18.4535 23.3857C15.4986 22.9636 12.4988 22.9636 9.54393 23.3857L8.43044 23.5448C7.05902 23.7407 5.83203 22.6766 5.83203 21.2912V19.7565Z" stroke="#171717" stroke-width="1.75"></path>
  </symbol>
</svg>